<svg id="Change_Management" data-name="Change Management" xmlns="http://www.w3.org/2000/svg" width="200.604" height="167.203" viewBox="0 0 200.604 167.203">
  <g id="freepik--Floor--inject-2" transform="translate(0 161.011)">
    <path id="Path_36117" data-name="Path 36117" d="M-1309.985,532.424h-200.161a.208.208,0,0,1-.221-.192.208.208,0,0,1,.221-.192h200.161a.208.208,0,0,1,.221.192A.208.208,0,0,1-1309.985,532.424Z" transform="translate(1510.368 -532.04)" fill="#263238"/>
  </g>
  <g id="freepik--arrows-2--inject-2" transform="translate(19.773 15.415)">
    <path id="Path_36118" data-name="Path 36118" d="M-1349.052,169.025a3.75,3.75,0,0,1-3.746-3.754,3.75,3.75,0,0,1,1.008-2.554l32.274-34.489-21.766,1.519-.423-5.919h.192l33.428-2.308-.108,33.7h-5.935l.089-21.874-32.281,34.5A3.759,3.759,0,0,1-1349.052,169.025Zm30.485-41.247-32.943,35.2a3.362,3.362,0,0,0,.16,4.752,3.362,3.362,0,0,0,4.752-.16h0l32.947-35.212-.077,22.427h5.166l.108-32.9-32.828,2.3.358,5.154Z" transform="translate(1398.664 -121.52)" fill="#263238"/>
    <path id="Path_36119" data-name="Path 36119" d="M-1127.794,362.14a2,2,0,0,1-2.01-2,2,2,0,0,1,.545-1.379l16.32-17.42-10.969.769-.219-3.212,17.343-1.212-.058,17.4h-3.215l.038-11-16.316,17.435A2.014,2.014,0,0,1-1127.794,362.14ZM-1112,340.879l-16.977,18.158a1.625,1.625,0,0,0-.438,1.154,1.623,1.623,0,0,0,1.677,1.567,1.625,1.625,0,0,0,1.131-.513l16.981-18.146-.039,11.593h2.45l.046-16.589-16.558,1.154.165,2.442Z" transform="translate(1282.474 -266.543)" fill="#263238"/>
    <path id="Path_36120" data-name="Path 36120" d="M-1416.55,182.591l-6.289-5.85,11.977-12.558-4.977-1.8,21.539-9.669-8.077,22.162-2.162-4.842Zm-5.742-5.865,5.727,5.323,12.112-12.693,2,4.5,7.458-20.412-19.816,8.9,4.615,1.681Z" transform="translate(1437.108 -143.898)" fill="#263238"/>
    <path id="Path_36121" data-name="Path 36121" d="M-1452.689,474.646l-6.269-5.835,11.977-12.558-4.977-1.8,21.539-9.669-8.131,22.147-2.162-4.842Zm-5.739-5.865,5.723,5.323,12.112-12.693,2.008,4.5,7.454-20.416-19.823,8.9,4.638,1.681Z" transform="translate(1458.959 -332.443)" fill="#263238"/>
    <path id="Path_36122" data-name="Path 36122" d="M-1457.612,299.73h-38.016v-5h38.016a23.64,23.64,0,0,0,17.285-7.546l10.769-11.619-10.939,5.6-1.569-3.05.173-.088,25.67-13.169-11.273,26.766-3.161-1.331,4.777-11.343-10.77,11.619A28.671,28.671,0,0,1-1457.612,299.73Zm-37.632-.385h37.632a28.271,28.271,0,0,0,20.67-9.023l12.262-13.219-5.473,13,2.454,1.035,10.712-25.435-24.558,12.6,1.215,2.369,12.55-6.419-12.262,13.219a24.036,24.036,0,0,1-17.57,7.669h-37.632Z" transform="translate(1495.628 -221.725)" fill="#263238"/>
  </g>
  <g id="freepik--Character--inject-2" transform="translate(94.749 38.71)">
    <path id="Path_36123" data-name="Path 36123" d="M-1177.677,278.926l-2.126-1.326-2.8,2.833,2.017,2.362Z" transform="translate(1242.234 -266.615)" fill="#fff"/>
    <path id="Path_36124" data-name="Path 36124" d="M-1180.865,282.719a.224.224,0,0,1-.16-.076l-2.008-2.358a.215.215,0,0,1,0-.286l2.8-2.833a.214.214,0,0,1,.261-.029l2.126,1.326a.2.2,0,0,1,.093.139.191.191,0,0,1-.038.164l-2.9,3.869a.216.216,0,0,1-.16.084Zm-1.747-2.564,1.722,2.017,2.606-3.473-1.768-1.107Z" transform="translate(1242.517 -266.329)" fill="#263238"/>
    <path id="Path_36125" data-name="Path 36125" d="M-1162.223,521.576s3.3,2.808,3.915,3.242,5.052,2.324,5.052,2.324a.905.905,0,0,1-.35,1.01c-.568.488-5.957.947-7.548.842a13.68,13.68,0,0,1-4.437-1.684,25.248,25.248,0,0,1-2.223-2.332l-.884.766-3.991-1.983a11.245,11.245,0,0,1,1.023-3.414,11.639,11.639,0,0,1,2.189-2.177Z" transform="translate(1236.495 -405.91)" fill="#263238"/>
    <path id="Path_36126" data-name="Path 36126" d="M-1160.886,528.922h-.577a14.225,14.225,0,0,1-4.53-1.726,21.955,21.955,0,0,1-2.139-2.219l-.728.632a.211.211,0,0,1-.232.029l-3.987-1.983a.211.211,0,0,1-.114-.219,10.878,10.878,0,0,1,1.052-3.5,11.688,11.688,0,0,1,2.235-2.227.206.206,0,0,1,.219-.025l7.241,3.439a.1.1,0,0,1,.046.029c.034.025,3.3,2.808,3.9,3.229.472.328,3.49,1.65,5.022,2.3a.224.224,0,0,1,.109.114,1.086,1.086,0,0,1-.421,1.263C-1154.352,528.547-1158.911,528.922-1160.886,528.922Zm-7.224-4.466a.2.2,0,0,1,.16.071,25.017,25.017,0,0,0,2.172,2.29,13.79,13.79,0,0,0,4.345,1.684c1.684.135,6.917-.366,7.393-.775a.733.733,0,0,0,.311-.695c-.657-.282-4.424-1.9-5.006-2.311s-3.6-2.972-3.915-3.233l-7.1-3.368a10.986,10.986,0,0,0-2.038,2.046,10.542,10.542,0,0,0-.968,3.178l3.726,1.857.779-.678a.217.217,0,0,1,.156-.067Z" transform="translate(1236.788 -405.616)" fill="#263238"/>
    <path id="Path_36127" data-name="Path 36127" d="M-1309.042,525.938l-2.379-.514a49.646,49.646,0,0,0-4.412-2.555c-.737-.227-1.781.021-2.5,1.507l-1,2.488.627.695s-1.8.88-2.1,1.621-2.37,2.821-2.833,5.549.371,2.16.69,2.012,5.363-3.692,6.134-4.21,5.864-1.469,5.864-1.469S-1310.087,526.662-1309.042,525.938Z" transform="translate(1323.982 -408.588)" fill="#263238"/>
    <path id="Path_36128" data-name="Path 36128" d="M-1323.659,536.768a.492.492,0,0,1-.3-.1c-.227-.168-.451-.585-.16-2.311a11.521,11.521,0,0,1,2.265-4.694,5.789,5.789,0,0,0,.577-.893c.257-.644,1.423-1.322,1.958-1.6l-.446-.493a.218.218,0,0,1-.038-.219l1-2.492c.77-1.6,1.928-1.886,2.757-1.629a47.047,47.047,0,0,1,4.429,2.56l2.341.505a.206.206,0,0,1,.164.164.215.215,0,0,1-.084.215c-.8.568-1.587,3.789-1.823,5.006a.211.211,0,0,1-.164.168,37.61,37.61,0,0,0-5.793,1.44c-.3.2-1.3.892-2.362,1.625-2.164,1.5-3.6,2.492-3.789,2.581l-.059.029A1.1,1.1,0,0,1-1323.659,536.768Zm4.294-10.276.543.6a.214.214,0,0,1,.051.181.2.2,0,0,1-.118.147c-.48.236-1.776.964-2,1.511a5.822,5.822,0,0,1-.627.981,11.173,11.173,0,0,0-2.189,4.521c-.274,1.612-.051,1.869,0,1.9s.236-.038.328-.084l.072-.034c.189-.088,2.235-1.507,3.73-2.526,1.107-.77,2.067-1.431,2.37-1.629.733-.48,4.871-1.3,5.805-1.478.156-.762.8-3.726,1.663-4.833l-2-.421a.213.213,0,0,1-.071-.025,45.08,45.08,0,0,0-4.361-2.526c-.32-.1-1.431-.29-2.248,1.4Z" transform="translate(1324.256 -408.275)" fill="#263238"/>
    <path id="Path_36129" data-name="Path 36129" d="M-1270.622,431.359s.282,7.451,1.781,17.488,2.458,14.734,2.458,14.734-1.191-.564-1.238.139a3,3,0,0,0,.135,1.162l-23.6,4.892a4.106,4.106,0,0,0-1.558,3.187,13.066,13.066,0,0,0-.1,2.724s22.632,0,28.627-.219,9.682-1.015,10.1-1.5a4.232,4.232,0,0,0,.842-1.983c-.084-.227,1.9-18.443,1.949-20.7a46.708,46.708,0,0,1,1.574-7.616s18.2-1.507,20.38-1.532l1.174.177-10.891,22.379a10.3,10.3,0,0,0,4.353,3.208,10.408,10.408,0,0,0,3.789.674,6.374,6.374,0,0,1,.552-1.427,11.4,11.4,0,0,0,.088-2.947c-.025-.455,13.888-19.365,16.351-23.044s2.728-6.277,1.983-7.254-19.757-6.5-24.08-7.464a38.937,38.937,0,0,0-9.683-.543,46.251,46.251,0,0,1-9.75,5.515C-1260.039,433.106-1270.622,431.359-1270.622,431.359Z" transform="translate(1306.022 -352.424)" fill="#fb4400"/>
    <path id="Path_36130" data-name="Path 36130" d="M-1293.022,475.546a.2.2,0,0,1-.2-.156,13.88,13.88,0,0,1,.092-2.8,4.414,4.414,0,0,1,1.655-3.368.2.2,0,0,1,.072-.025l23.373-4.808a3.648,3.648,0,0,1-.08-1.015.534.534,0,0,1,.265-.459,1.2,1.2,0,0,1,.9,0c-.253-1.305-1.141-6.024-2.387-14.389-1.482-9.935-1.781-17.437-1.785-17.513a.217.217,0,0,1,.072-.164.2.2,0,0,1,.172-.051c.105,0,10.583,1.713,15.155.051a46.314,46.314,0,0,0,9.708-5.5.209.209,0,0,1,.11-.038,39.042,39.042,0,0,1,9.733.543c3.76.842,23.348,6.433,24.2,7.544.745.973.673,3.519-1.974,7.493-1.074,1.608-4.252,6-7.62,10.655-3.965,5.473-8.458,11.678-8.723,12.288.13,2.77-.055,2.976-.147,3.077a5.81,5.81,0,0,0-.5,1.339.224.224,0,0,1-.181.156,10.611,10.611,0,0,1-3.852-.682,10.464,10.464,0,0,1-4.458-3.284.214.214,0,0,1,0-.219l10.765-22.123-.893-.135c-2.008.03-18.452,1.381-20.182,1.524a44.379,44.379,0,0,0-1.528,7.422c-.025,1.263-.652,7.451-1.208,12.9-.387,3.818-.753,7.426-.745,7.763a4.054,4.054,0,0,1-.888,2.164c-.556.615-4.547,1.368-10.263,1.57C-1270.318,475.537-1292.795,475.546-1293.022,475.546Zm1.743-5.923a4.031,4.031,0,0,0-1.431,3.006,21.469,21.469,0,0,0-.118,2.5c2.21,0,22.8-.021,28.408-.219,6.252-.223,9.628-1.057,9.969-1.431a4.147,4.147,0,0,0,.791-1.781c-.042-.109,0-.8.737-7.906.526-5.17,1.179-11.607,1.2-12.865a46.111,46.111,0,0,1,1.583-7.67.206.206,0,0,1,.185-.152c.745-.063,18.233-1.507,20.392-1.532l1.208.177a.2.2,0,0,1,.156.109.217.217,0,0,1,0,.189l-10.828,22.262a10.057,10.057,0,0,0,4.168,3.04,11.68,11.68,0,0,0,3.54.669,5.155,5.155,0,0,1,.56-1.364,10.145,10.145,0,0,0,.034-2.808c0-.278,1.554-2.5,8.807-12.524,3.368-4.631,6.542-9.039,7.612-10.638,2.362-3.549,2.7-6.075,1.987-7.005s-19.517-6.4-23.958-7.388a39.006,39.006,0,0,0-9.548-.543,45.565,45.565,0,0,1-9.767,5.523c-4.311,1.574-13.413.269-15.092,0,.063,1.4.442,8.327,1.768,17.21,1.477,9.914,2.446,14.7,2.454,14.734a.211.211,0,0,1-.076.211.215.215,0,0,1-.219.025c-.261-.126-.72-.261-.885-.164a.158.158,0,0,0-.054.122,2.87,2.87,0,0,0,.122,1.074.211.211,0,0,1-.121.272.229.229,0,0,1-.035.01Z" transform="translate(1306.303 -352.092)" fill="#263238"/>
    <path id="Path_36131" data-name="Path 36131" d="M-1189.6,457.988a.239.239,0,0,1-.088,0,.211.211,0,0,1-.1-.28v0c1.4-2.926,3.107-6.449,3.326-6.614a.212.212,0,0,1,.3.044.213.213,0,0,1-.044.3h0c-.2.24-2.071,4.088-3.2,6.454A.22.22,0,0,1-1189.6,457.988Z" transform="translate(1246.408 -367.047)" fill="#263238"/>
    <path id="Path_36132" data-name="Path 36132" d="M-1198.093,461.129a.2.2,0,0,1-.143-.059.2.2,0,0,1-.009-.286l.009-.009,1.208-1.309a.211.211,0,0,1,.3-.013.212.212,0,0,1,.012.3l-1.212,1.309A.22.22,0,0,1-1198.093,461.129Z" transform="translate(1251.325 -371.879)" fill="#263238"/>
    <path id="Path_36133" data-name="Path 36133" d="M-1192.618,450.1a.233.233,0,0,1-.143-.055.215.215,0,0,1,0-.3c2.3-2.526,4.462-4.951,4.487-4.976a.211.211,0,0,1,.293-.056.21.21,0,0,1,.055.293.2.2,0,0,1-.036.041c0,.025-2.185,2.458-4.488,4.98A.212.212,0,0,1-1192.618,450.1Z" transform="translate(1248.153 -363.359)" fill="#263238"/>
    <path id="Path_36134" data-name="Path 36134" d="M-1233.867,452.516a.219.219,0,0,1-.2-.139.21.21,0,0,1,.126-.269,31.114,31.114,0,0,0,5.262-2.4.472.472,0,0,0,.16-.349c.059-.808-1.073-2.286-1.516-2.787a.206.206,0,0,1,.017-.291l0,0a.21.21,0,0,1,.295,0c.072.08,1.705,1.945,1.621,3.094a.89.89,0,0,1-.307.64c-.989.842-5.212,2.408-5.388,2.471A.167.167,0,0,1-1233.867,452.516Z" transform="translate(1272.041 -364.248)" fill="#263238"/>
    <path id="Path_36135" data-name="Path 36135" d="M-1231.16,502.1a.206.206,0,0,1-.19-.181l-.029-.543a.21.21,0,0,1,.177-.219l.951-.16a4.885,4.885,0,0,0-.615-.64.286.286,0,0,1-.143-.2c-.055-.286.3-.842.568-1.191a9.332,9.332,0,0,1-.686-2.075c-.164-.762-.716-4.382-1.233-8.066a.214.214,0,0,1,.181-.24.21.21,0,0,1,.236.181c.505,3.612,1.069,7.291,1.229,8.032a8.447,8.447,0,0,0,.7,2.1.2.2,0,0,1,0,.227,3.725,3.725,0,0,0-.56.93,7.931,7.931,0,0,1,.9.972.211.211,0,0,1-.031.3.212.212,0,0,1-.1.045l-1.128.185v.358a.2.2,0,0,1-.184.218h-.014Z" transform="translate(1271.048 -388.774)" fill="#263238"/>
    <path id="Path_36136" data-name="Path 36136" d="M-1233.95,461.617a.215.215,0,0,1-.211-.181c-.265-1.983-.6-4.631-.7-5.995-.236-3.229.038-10.3.042-10.369a.215.215,0,0,1,.219-.2.21.21,0,0,1,.2.219h0c0,.072-.278,7.115-.046,10.322.1,1.351.421,3.991.7,5.97a.211.211,0,0,1-.177.236Z" transform="translate(1272.549 -363.468)" fill="#263238"/>
    <path id="Path_36137" data-name="Path 36137" d="M-1288.738,532.023a.207.207,0,0,1-.206-.168.21.21,0,0,1,.164-.248h0l3.162-.631a.214.214,0,0,1,.248.164.211.211,0,0,1-.164.248h0l-3.166.636Z" transform="translate(1303.812 -413.322)" fill="#263238"/>
    <path id="Path_36138" data-name="Path 36138" d="M-1275.818,525.5a.215.215,0,0,1-.206-.172.206.206,0,0,1,.16-.244h0l17.471-3.5a.21.21,0,0,1,.248.164h0a.215.215,0,0,1-.164.248l-17.471,3.5Z" transform="translate(1296.332 -407.884)" fill="#263238"/>
    <path id="Path_36139" data-name="Path 36139" d="M-1137.628,463.109a.214.214,0,0,1-.211-.206.21.21,0,0,1,.206-.215h0a36.705,36.705,0,0,0,6.9-.956.21.21,0,0,1,.253.156.215.215,0,0,1-.151.257,37.645,37.645,0,0,1-7,.964Z" transform="translate(1216.317 -373.228)" fill="#263238"/>
    <path id="Path_36140" data-name="Path 36140" d="M-1127.006,461.892a.21.21,0,0,1-.206-.168.214.214,0,0,1,.168-.248,17.526,17.526,0,0,0,6.828-3.17.211.211,0,0,1,.3.032.211.211,0,0,1-.031.3,17.987,17.987,0,0,1-7.014,3.254Z" transform="translate(1210.166 -371.22)" fill="#263238"/>
    <path id="Path_36141" data-name="Path 36141" d="M-1142.727,452.234a.215.215,0,0,1-.19-.122.206.206,0,0,1,.1-.276l0,0c.627-.3,1.208-.606,1.726-.909a.21.21,0,0,1,.294.046.21.21,0,0,1-.046.294.215.215,0,0,1-.037.022c-.526.312-1.115.619-1.755.926A.231.231,0,0,1-1142.727,452.234Z" transform="translate(1219.269 -366.95)" fill="#263238"/>
    <path id="Path_36142" data-name="Path 36142" d="M-1185.788,460.03a.207.207,0,0,1-.206-.173.206.206,0,0,1,.162-.243h.007a95.493,95.493,0,0,0,15.938-4.3.215.215,0,0,1,.274.118.21.21,0,0,1-.117.273h0a97.294,97.294,0,0,1-16.018,4.323Z" transform="translate(1244.202 -369.505)" fill="#263238"/>
    <path id="Path_36143" data-name="Path 36143" d="M-1252.857,324.741s1.587,16.418,1.6,16.654-.787,6.618-.135,6.984a21.73,21.73,0,0,0,4.492,1.128,28.971,28.971,0,0,0,9.9-.24c3.136-.707,9.392-4.1,9.927-4.606a7.774,7.774,0,0,0,1.844-2.787c.046-.64-1.92-15.13-1.92-15.13l.6-7.157,3.629-8.58s11.758-7.7,13.5-9.455,6.176-6.736,6.075-7.19-8.529-7.439-11.143-9.055-6.736-4.749-7.359-4.559-3.718,3.431-3.44,4.29,9.059,10.264,9.059,10.264l-6.167,3.553-14.314,7.195s-7.258.749-11.408,3.486-12.006,9.068-10.6,10.268S-1252.857,324.741-1252.857,324.741Z" transform="translate(1286.404 -268.434)" fill="#fff"/>
    <path id="Path_36144" data-name="Path 36144" d="M-1243.12,349.745a22.525,22.525,0,0,1-4.121-.32,21.468,21.468,0,0,1-4.559-1.153c-.4-.223-.547-1.389-.029-6.5.029-.328.059-.61.059-.661,0-.223-1.04-10.874-1.591-16.553-.56-.467-4.5-3.789-5.805-4.892a.711.711,0,0,1-.236-.606c.13-2.1,7.716-7.923,10.861-10,3.987-2.631,10.878-3.448,11.463-3.515l14.284-7.178,5.932-3.414c-1.478-1.583-8.655-9.312-8.925-10.15a1.261,1.261,0,0,1,.2-.913,11.861,11.861,0,0,1,3.368-3.641c.455-.139,1.726.682,4.517,2.585,1.04.711,2.1,1.444,3.01,2,2.231,1.377,11.093,8.521,11.236,9.186.164.745-5.616,6.87-6.13,7.384-1.684,1.705-12.507,8.815-13.471,9.451l-3.591,8.491-.573,7.106c.215,1.591,1.97,14.515,1.92,15.155a7.925,7.925,0,0,1-1.911,2.922c-.526.5-6.854,3.945-10.024,4.656A28.094,28.094,0,0,1-1243.12,349.745Zm21.049-69.092h-.025a12.176,12.176,0,0,0-3.119,3.431c-.211.421-.185.556-.173.594.194.594,5.5,6.416,9.013,10.184a.223.223,0,0,1,.055.177.207.207,0,0,1-.105.152l-6.167,3.549-14.313,7.186a.176.176,0,0,1-.076.021c-.072,0-7.254.779-11.312,3.456-4.18,2.757-10.571,8.024-10.672,9.682a.282.282,0,0,0,.089.261c1.389,1.183,5.826,4.909,5.868,4.947a.2.2,0,0,1,.076.139c.063.674,1.587,16.418,1.6,16.662a6.234,6.234,0,0,1-.063.72c-.476,4.706-.354,5.915-.172,6.1a22.308,22.308,0,0,0,4.424,1.1,28.88,28.88,0,0,0,9.813-.24c3.078-.7,9.342-4.117,9.809-4.538a7.818,7.818,0,0,0,1.781-2.648c.034-.459-1.128-9.262-1.919-15.088v-.046l.6-7.157a.321.321,0,0,1,0-.063l3.629-8.58a.238.238,0,0,1,.076-.1c.118-.076,11.762-7.712,13.471-9.426,1.932-1.945,5.78-6.315,6.007-7.005a105.5,105.5,0,0,0-11.038-8.912c-.9-.56-1.979-1.3-3.026-2.012-1.558-1.09-3.7-2.534-4.13-2.534Z" transform="translate(1286.707 -268.141)" fill="#263238"/>
    <path id="Path_36145" data-name="Path 36145" d="M-1161.247,331.969a.224.224,0,0,1-.114-.034.21.21,0,0,1-.063-.291l.652-1.006a.211.211,0,0,1,.292-.061.211.211,0,0,1,.061.293l-.652,1A.2.2,0,0,1-1161.247,331.969Z" transform="translate(1229.993 -297.271)" fill="#263238"/>
    <path id="Path_36146" data-name="Path 36146" d="M-1173.739,341.9a.247.247,0,0,1-.1-.021.215.215,0,0,1-.1-.265l3.035-7.759a.21.21,0,0,1,.28-.1.211.211,0,0,1,.111.251l-2.282,5.843,3.178-4.892a.21.21,0,0,1,.285-.086.21.21,0,0,1,.086.285.239.239,0,0,1-.021.033l-4.3,6.618A.216.216,0,0,1-1173.739,341.9Z" transform="translate(1237.227 -299.118)" fill="#263238"/>
    <path id="Path_36147" data-name="Path 36147" d="M-1156.037,313.26a.213.213,0,0,1-.244-.177.213.213,0,0,1,.177-.244c.164-.055,4.054-1.4,5.309-1.048a3.819,3.819,0,0,1,1.722.842.21.21,0,0,1,.009.3.211.211,0,0,1-.3.01l-.019-.021a3.544,3.544,0,0,0-1.528-.733c-.939-.265-3.97.661-5.052,1.04A.223.223,0,0,1-1156.037,313.26Z" transform="translate(1226.998 -286.379)" fill="#263238"/>
    <path id="Path_36148" data-name="Path 36148" d="M-1150.455,311.074a.2.2,0,0,1-.173-.1.207.207,0,0,1,.053-.287l.006,0a11.508,11.508,0,0,1,1.339-.695c.985-.467,3.145.051,3.237.072a.215.215,0,0,1,.156.257.211.211,0,0,1-.256.152h0a6.347,6.347,0,0,0-2.947-.1,12.961,12.961,0,0,0-1.288.682A.2.2,0,0,1-1150.455,311.074Z" transform="translate(1223.743 -285.259)" fill="#263238"/>
    <path id="Path_36149" data-name="Path 36149" d="M-1220.228,422.221a.191.191,0,0,1-.105-.03,8.466,8.466,0,0,1-.994-.669.21.21,0,0,1-.02-.3.21.21,0,0,1,.276-.035,8.761,8.761,0,0,0,.947.64.211.211,0,0,1,.074.288.212.212,0,0,1-.179.1Z" transform="translate(1264.7 -349.736)" fill="#263238"/>
    <path id="Path_36150" data-name="Path 36150" d="M-1233.665,406.99a.211.211,0,0,1-.143-.055c-3.49-3.191-7.376-9.156-7.418-9.215a.211.211,0,0,1,.061-.293.211.211,0,0,1,.293.061h0c.042.059,3.9,5.982,7.346,9.135a.211.211,0,0,1,.015.3.212.212,0,0,1-.153.069Z" transform="translate(1276.2 -335.978)" fill="#263238"/>
    <path id="Path_36151" data-name="Path 36151" d="M-1216.6,428.68h-.046a12.53,12.53,0,0,1-1.575-.463.211.211,0,0,1-.124-.272.211.211,0,0,1,.272-.124,11.752,11.752,0,0,0,1.52.446.211.211,0,0,1,.187.234.212.212,0,0,1-.234.187Z" transform="translate(1262.938 -353.589)" fill="#263238"/>
    <path id="Path_36152" data-name="Path 36152" d="M-1225.746,422.991a.223.223,0,0,1-.088,0,11.063,11.063,0,0,1-4.345-3.368.21.21,0,0,1,.038-.3.211.211,0,0,1,.3.037.191.191,0,0,1,.012.018,10.858,10.858,0,0,0,4.172,3.216.211.211,0,0,1,.105.278A.209.209,0,0,1-1225.746,422.991Z" transform="translate(1269.809 -348.653)" fill="#263238"/>
    <path id="Path_36153" data-name="Path 36153" d="M-1190.388,348.852l2.164,3.928-1.292,28.206,4.248,4.429,3.064-5.814-4.9-26.875,1.638-3.338-1.436-3.107Z" transform="translate(1246.744 -306.382)" fill="#263238"/>
    <path id="Path_36154" data-name="Path 36154" d="M-1185.559,385.337a.211.211,0,0,1-.151-.067l-4.248-4.429a.218.218,0,0,1-.059-.152l1.292-28.147-2.139-3.877a.206.206,0,0,1,.063-.269l3.477-2.572a.2.2,0,0,1,.177-.034.207.207,0,0,1,.139.118l1.44,3.1a.208.208,0,0,1,0,.181l-1.608,3.279,4.892,26.8a.23.23,0,0,1-.021.139l-3.065,5.81a.2.2,0,0,1-.156.109Zm-4.033-4.719,3.982,4.151,2.9-5.473-4.9-26.8a.205.205,0,0,1,.021-.131l1.6-3.25-1.288-2.778-3.124,2.307,2.075,3.789a.2.2,0,0,1,.025.109Z" transform="translate(1247.035 -306.094)" fill="#263238"/>
    <path id="Path_36155" data-name="Path 36155" d="M-1199.548,295.386s4.345,2.37,4.374,2.947a4.15,4.15,0,0,0,.6,1.49,24.161,24.161,0,0,1,2.947,1.974c.358.446-.421,2.4-.421,2.4a24.068,24.068,0,0,1,1.617,3.292,2.6,2.6,0,0,1-.661,1.423,19.489,19.489,0,0,1-3.368,1.617l-3.641,8.112a3.859,3.859,0,0,1-1.052.118c-.421-.046-8.314-7.62-8.314-7.62l.842-2.2-2.993-5.81s2.235-5.73,4.884-7.047A8.38,8.38,0,0,1-1199.548,295.386Z" transform="translate(1257.879 -276.833)" fill="#fff"/>
    <path id="Path_36156" data-name="Path 36156" d="M-1199.245,318.746h-.185c-.387-.046-4.8-4.21-8.42-7.674a.214.214,0,0,1-.05-.227l.8-2.1-2.947-5.725a.224.224,0,0,1,0-.173c.093-.236,2.3-5.822,4.988-7.157a8.469,8.469,0,0,1,5.33-.728h.055c1.663.905,4.454,2.526,4.483,3.136a3.775,3.775,0,0,0,.543,1.347,20.879,20.879,0,0,1,2.947,2c.345.442-.13,1.945-.349,2.526a19.782,19.782,0,0,1,1.6,3.3,2.892,2.892,0,0,1-.7,1.558,15.991,15.991,0,0,1-3.368,1.654l-3.608,8.036a.215.215,0,0,1-.143.118A4.7,4.7,0,0,1-1199.245,318.746Zm-8.23-7.893c3.069,2.947,7.7,7.275,8.133,7.472a3.228,3.228,0,0,0,.842-.1l3.6-8a.192.192,0,0,1,.114-.109,17.473,17.473,0,0,0,3.271-1.549,2.583,2.583,0,0,0,.615-1.263,19.972,19.972,0,0,0-1.587-3.2.2.2,0,0,1,0-.181,4.293,4.293,0,0,0,.442-2.193,21.665,21.665,0,0,0-2.879-1.924.186.186,0,0,1-.072-.067,4.3,4.3,0,0,1-.636-1.6c-.105-.337-2.277-1.684-4.239-2.774a8.257,8.257,0,0,0-5.022.707c-2.37,1.179-4.454,6.125-4.745,6.849l2.947,5.721a.2.2,0,0,1,0,.168Z" transform="translate(1258.14 -276.579)" fill="#263238"/>
    <path id="Path_36157" data-name="Path 36157" d="M-1178.081,331.6l-3.267.505,2.147,1.869Z" transform="translate(1241.51 -297.882)" fill="#263238"/>
    <path id="Path_36158" data-name="Path 36158" d="M-1179.488,333.9a.215.215,0,0,1-.139-.055l-2.151-1.869a.2.2,0,0,1-.063-.215.205.205,0,0,1,.168-.152l3.271-.5a.2.2,0,0,1,.2.08.212.212,0,0,1,.021.215l-1.116,2.374a.234.234,0,0,1-.147.118Zm-1.684-1.941,1.6,1.389.842-1.764Z" transform="translate(1241.801 -297.595)" fill="#263238"/>
    <path id="Path_36159" data-name="Path 36159" d="M-1181.52,304.4a.2.2,0,0,1-.1-.025.21.21,0,0,1-.093-.282,1.953,1.953,0,0,1,2.526-1,.211.211,0,0,1,.109.278.211.211,0,0,1-.278.109,1.515,1.515,0,0,0-1.993.789l-.007.016A.208.208,0,0,1-1181.52,304.4Z" transform="translate(1241.732 -281.287)" fill="#263238"/>
    <path id="Path_36160" data-name="Path 36160" d="M-1176.872,306.812c.177.316.173.657,0,.758s-.472-.076-.648-.391-.177-.657,0-.758S-1177.049,306.492-1176.872,306.812Z" transform="translate(1239.37 -283.286)" fill="#263238"/>
    <path id="Path_36161" data-name="Path 36161" d="M-1172.564,319.251a.206.206,0,0,1-.181-.109.21.21,0,0,1,.08-.286,1.645,1.645,0,0,1,1.8-.059.21.21,0,0,1,.012.3.211.211,0,0,1-.26.04,1.3,1.3,0,0,0-1.343.093A.248.248,0,0,1-1172.564,319.251Z" transform="translate(1236.544 -290.337)" fill="#263238"/>
    <path id="Path_36162" data-name="Path 36162" d="M-1205.25,289.172s2.88-.6,3.237-1.41.484-3.663-.947-3.132-1.684.876-1.684.876-2.471-3.187-3.747-2.2a1.4,1.4,0,0,0-.5,2.008s-2.033.362-2.715,1.263.047.989.047.989-4.863,3.368-5.005,7.254,4.378,7.064,5.944,8,2.025.892,2.669.53a12.275,12.275,0,0,0,2.008-2.282s-2.185-1.347-2.559-2.256.034-2.05.888-2.16a1.751,1.751,0,0,1,1.684.909c.084.328.918-.24.918-.24s-.935-1.478-1.221-1.991,1.848-2.736,1.747-3.46-2.825-.985-3.035-1.263S-1205.25,289.172-1205.25,289.172Z" transform="translate(1261.901 -269.81)" fill="#263238"/>
    <path id="Path_36163" data-name="Path 36163" d="M-1208.977,303.5A4.391,4.391,0,0,1-1211,302.7c-.636-.375-6.206-3.764-6.045-8.171.126-3.465,3.764-6.428,4.82-7.216a.54.54,0,0,1-.114-.168c-.105-.261,0-.581.295-.977a4.828,4.828,0,0,1,2.568-1.263,1.626,1.626,0,0,1,.686-2.025c1.263-.977,3.309,1.339,3.9,2.063a6.473,6.473,0,0,1,1.578-.77.875.875,0,0,1,1.015.189c.674.716.463,2.614.2,3.225-.383.842-2.947,1.444-3.368,1.528a13.425,13.425,0,0,0-2.029,1.145c.164.046.45.114.69.173,1.238.29,2.189.56,2.269,1.124.055.421-.324,1-.956,1.915-.328.48-.876,1.284-.817,1.473.282.5,1.2,1.966,1.213,1.979a.211.211,0,0,1-.059.286c-.261.181-.745.463-1.031.354a.329.329,0,0,1-.206-.232,1.579,1.579,0,0,0-1.465-.754.879.879,0,0,0-.648.463,1.641,1.641,0,0,0-.072,1.406,8.123,8.123,0,0,0,2.471,2.16.209.209,0,0,1,.1.135.207.207,0,0,1-.038.164,11.436,11.436,0,0,1-2.071,2.341A1.718,1.718,0,0,1-1208.977,303.5Zm.893-20.439a.7.7,0,0,0-.446.143c-1.069.842-.526,1.629-.459,1.718a.206.206,0,0,1-.033.29.206.206,0,0,1-.1.043,5.242,5.242,0,0,0-2.589,1.179c-.282.366-.253.518-.24.556s.151.1.151.1a.206.206,0,0,1,.182.227.207.207,0,0,1-.094.152c-.046.034-4.778,3.334-4.913,7.089-.151,4.164,5.224,7.43,5.839,7.788,1.6.935,1.941.842,2.463.53a10.166,10.166,0,0,0,1.806-2.038,7.9,7.9,0,0,1-2.45-2.235,2.046,2.046,0,0,1,.1-1.781,1.261,1.261,0,0,1,.956-.665,1.97,1.97,0,0,1,1.907,1.006,1.811,1.811,0,0,0,.442-.2c-.257-.421-.884-1.41-1.116-1.823s.168-.93.842-1.911a4.767,4.767,0,0,0,.884-1.621c-.038-.274-1.331-.627-1.949-.775s-.926-.223-1.04-.362a.256.256,0,0,1-.055-.232c.063-.286.842-.8,2.37-1.524h.046c1.073-.223,2.862-.77,3.09-1.292s.362-2.252-.118-2.762a.463.463,0,0,0-.56-.084,4.467,4.467,0,0,0-1.587.808.182.182,0,0,1-.168.076.212.212,0,0,1-.164-.076c-.56-.737-2.021-2.324-3-2.324Z" transform="translate(1262.179 -269.538)" fill="#263238"/>
    <path id="Path_36164" data-name="Path 36164" d="M-1207.361,330.51l9.889,8.571-3.465,3.473-7.611-10.1Z" transform="translate(1257.259 -297.251)" fill="#fff"/>
    <path id="Path_36165" data-name="Path 36165" d="M-1201.2,342.483h0a.207.207,0,0,1-.156-.084l-7.611-10.1a.21.21,0,0,1,0-.236l1.162-1.937a.217.217,0,0,1,.148-.1.209.209,0,0,1,.172.051l9.889,8.567a.2.2,0,0,1,.072.152.208.208,0,0,1-.059.156l-3.469,3.477A.211.211,0,0,1-1201.2,342.483Zm-7.363-10.323,7.376,9.792,3.136-3.141-9.523-8.268Z" transform="translate(1257.523 -296.97)" fill="#263238"/>
    <path id="Path_36166" data-name="Path 36166" d="M-1181.253,345.97l1,1.153-1.987.909Z" transform="translate(1242.025 -306.203)" fill="#fff"/>
    <path id="Path_36167" data-name="Path 36167" d="M-1182.526,347.957a.2.2,0,0,1-.147-.063.205.205,0,0,1-.042-.236l.985-2.063a.21.21,0,0,1,.281-.1.211.211,0,0,1,.068.053l1,1.149a.224.224,0,0,1,.046.185.232.232,0,0,1-.118.147l-1.987.909A.229.229,0,0,1-1182.526,347.957Zm1.036-1.89-.594,1.263,1.2-.552Z" transform="translate(1242.313 -305.917)" fill="#263238"/>
    <path id="Path_36168" data-name="Path 36168" d="M-1180.251,348.71l.783,3.822-2.77-2.913Z" transform="translate(1242.025 -307.789)" fill="#fff"/>
    <path id="Path_36169" data-name="Path 36169" d="M-1179.756,352.465a.218.218,0,0,1-.152-.063l-2.77-2.884a.22.22,0,0,1-.055-.185.211.211,0,0,1,.118-.152l1.987-.909a.211.211,0,0,1,.181,0,.21.21,0,0,1,.114.147l.783,3.822a.215.215,0,0,1-.105.232A.3.3,0,0,1-1179.756,352.465Zm-2.412-3.056,2.058,2.168-.585-2.842Z" transform="translate(1242.313 -307.524)" fill="#263238"/>
    <path id="Path_36170" data-name="Path 36170" d="M-1202.107,394.859s7.376-.1,7.632-.109,3.292,2.412,3.225,2.846a13.134,13.134,0,0,1-1.1,2.1,22.739,22.739,0,0,1-2.1,2.673c-.5.366-.421.535-1.263.493a4.3,4.3,0,0,1-1.743-.6s-4.235-.568-4.875-1.393a9.613,9.613,0,0,0-1.793-1.629Z" transform="translate(1254.7 -334.447)" fill="#fff"/>
    <path id="Path_36171" data-name="Path 36171" d="M-1195.764,402.806h-.244a4.386,4.386,0,0,1-1.806-.61c-.61-.084-4.315-.623-4.968-1.469a9.346,9.346,0,0,0-1.751-1.583.21.21,0,0,1-.072-.261l2.021-4.391a.219.219,0,0,1,.19-.122c2.547-.034,7.422-.1,7.62-.109h0a13.147,13.147,0,0,1,3.082,2.433c.278.3.379.493.358.653a11.641,11.641,0,0,1-1.128,2.193,19.526,19.526,0,0,1-2.155,2.732c-.109.084-.189.156-.257.215A1.071,1.071,0,0,1-1195.764,402.806Zm-8.386-3.915a9.266,9.266,0,0,1,1.684,1.57c.421.551,3.128,1.1,4.732,1.314a.276.276,0,0,1,.084.029,4.047,4.047,0,0,0,1.646.573c.568.029.631-.025.842-.211a3.584,3.584,0,0,1,.29-.24,21.444,21.444,0,0,0,2.05-2.627,11.646,11.646,0,0,0,1.065-2.025,14.687,14.687,0,0,0-3.039-2.6c-.514,0-6.47.1-7.472.109Z" transform="translate(1254.987 -334.164)" fill="#263238"/>
    <path id="Path_36172" data-name="Path 36172" d="M-1179.27,401.728a.215.215,0,0,1-.172-.084l-2.193-2.947a.211.211,0,0,1,.043-.295.211.211,0,0,1,.294.042l2.2,2.947a.21.21,0,0,1-.046.294h0A.2.2,0,0,1-1179.27,401.728Z" transform="translate(1241.7 -336.539)" fill="#263238"/>
    <path id="Path_36173" data-name="Path 36173" d="M-1182.169,405.356a.212.212,0,0,1-.143-.055l-2.753-2.555a.211.211,0,0,1-.031-.3.211.211,0,0,1,.3-.031l.021.02,2.753,2.551a.211.211,0,0,1,.005.3.211.211,0,0,1-.149.064Z" transform="translate(1243.707 -338.861)" fill="#263238"/>
    <path id="Path_36174" data-name="Path 36174" d="M-1184.4,409.6a.2.2,0,0,1-.114-.034l-2.387-1.516a.207.207,0,0,1-.072-.283l.005-.008a.21.21,0,0,1,.29-.063l2.391,1.516a.211.211,0,0,1,.063.29A.2.2,0,0,1-1184.4,409.6Z" transform="translate(1244.781 -341.923)" fill="#263238"/>
    <path id="Path_36175" data-name="Path 36175" d="M-1175.049,401.51s.421,2.13.535,2.547-.686,1.031-1.12.792-.514-1.225-.514-1.225Z" transform="translate(1238.499 -338.362)" fill="#fff"/>
    <path id="Path_36176" data-name="Path 36176" d="M-1175.7,404.833a.664.664,0,0,1-.328-.084c-.518-.286-.61-1.263-.623-1.389a.248.248,0,0,1,.025-.114l1.1-2.1a.218.218,0,0,1,.219-.114.207.207,0,0,1,.173.168c0,.021.421,2.126.53,2.526a.842.842,0,0,1-.375.842A1.22,1.22,0,0,1-1175.7,404.833Zm-.522-1.452c.034.307.164.871.4,1a.615.615,0,0,0,.581-.164c.181-.147.257-.307.236-.383-.088-.282-.295-1.309-.421-1.974Z" transform="translate(1238.788 -338.082)" fill="#263238"/>
    <path id="Path_36177" data-name="Path 36177" d="M-1206.978,396.886a.231.231,0,0,1-.126-.042l-1.865-1.368a.206.206,0,0,1-.08-.227l1.3-4.782a.205.205,0,0,1,.13-.139.2.2,0,0,1,.189,0l2.577,1.764a.211.211,0,0,1,.072.261l-2.021,4.387a.207.207,0,0,1-.139.118Zm-1.616-1.663,1.545,1.128,1.835-3.991-2.181-1.494Z" transform="translate(1257.555 -331.873)" fill="#263238"/>
    <path id="Path_36178" data-name="Path 36178" d="M-1243.031,346.756s.421-5.6-1.183-8.42-5.186-2.581-10.946-.758-20.822,12.933-21.112,14.065,3.191,3.877,5.2,4.631,20.628,8,20.99,8.247,1.823.421,2.29-.539,1.869-3.953,1.313-4.782-9-7.03-9-7.03l8.3-4" transform="translate(1296.482 -300.552)" fill="#fff"/>
    <path id="Path_36179" data-name="Path 36179" d="M-1249.453,364.62a1.951,1.951,0,0,1-1-.232c-.5-.282-18.5-7.3-20.948-8.226-1.873-.707-5.675-3.532-5.33-4.888.324-1.263,15.484-12.381,21.251-14.212,5.452-1.73,9.438-2.244,11.181.842,1.608,2.863,1.225,8.327,1.208,8.554a.219.219,0,0,1-.227.2.211.211,0,0,1-.194-.226h0c0-.055.391-5.565-1.158-8.319-1.389-2.471-4.386-2.656-10.684-.661-5.911,1.894-20.645,12.912-20.969,13.93-.24.93,3.077,3.637,5.052,4.391,1.212.459,20.628,8,21.049,8.268a1.9,1.9,0,0,0,1.263.1,1.051,1.051,0,0,0,.716-.551c1.153-2.383,1.65-4.092,1.326-4.576-.392-.585-5.569-4.492-8.954-6.971a.215.215,0,0,1-.084-.189.205.205,0,0,1,.118-.173l8.3-4a.211.211,0,0,1,.282.1.211.211,0,0,1-.1.282l-8,3.852c1.634,1.2,8.256,6.1,8.778,6.875.421.644,0,2.324-1.3,4.989a1.47,1.47,0,0,1-.968.783A2.468,2.468,0,0,1-1249.453,364.62Z" transform="translate(1296.75 -300.242)" fill="#263238"/>
    <path id="Path_36180" data-name="Path 36180" d="M-1256.821,363.282a.215.215,0,0,1-.252-.168.214.214,0,0,1,.168-.253,10.264,10.264,0,0,1,1.234-.421.21.21,0,0,1,.257.147.206.206,0,0,1-.14.256h0a9.911,9.911,0,0,0-1.179.421A.207.207,0,0,1-1256.821,363.282Z" transform="translate(1285.359 -315.735)" fill="#263238"/>
    <path id="Path_36181" data-name="Path 36181" d="M-1241.406,366.9a.2.2,0,0,1-.122-.038c-.059-.038-5.528-3.949-6.677-4.829-.535-.421-1.827-.421-3.54-.059a.215.215,0,0,1-.255-.166.215.215,0,0,1,.166-.255c1.078-.236,3.014-.535,3.885.131,1.141.876,6.61,4.782,6.664,4.82a.214.214,0,0,1,.046.295A.208.208,0,0,1-1241.406,366.9Z" transform="translate(1282.421 -315.065)" fill="#263238"/>
    <path id="Path_36182" data-name="Path 36182" d="M-1242.356,360.75a.211.211,0,0,1-.194-.126c-.8-1.857-3.212-1.768-3.233-1.764a.211.211,0,0,1-.221-.2.211.211,0,0,1,.2-.221c.114,0,2.724-.109,3.641,2.017a.21.21,0,0,1-.108.277h0A.206.206,0,0,1-1242.356,360.75Z" transform="translate(1278.947 -313.422)" fill="#263238"/>
    <path id="Path_36183" data-name="Path 36183" d="M-1209.323,369.512a.21.21,0,0,1-.206-.189.21.21,0,0,1,.187-.232h0l1.208-.122a.215.215,0,0,1,.232.185.211.211,0,0,1-.187.231h0l-1.2.126Z" transform="translate(1257.828 -319.519)" fill="#263238"/>
    <path id="Path_36184" data-name="Path 36184" d="M-1220.318,370.362a.215.215,0,0,1-.21-.19.218.218,0,0,1,.189-.231l3.229-.333a.211.211,0,0,1,.232.189.212.212,0,0,1-.189.232l-3.229.333Z" transform="translate(1264.196 -319.89)" fill="#263238"/>
    <path id="Path_36185" data-name="Path 36185" d="M-1174.428,258.038a26.453,26.453,0,0,0,1.836-2.189c.067-.24.724-3.839.724-3.839l-.842.749Z" transform="translate(1237.503 -251.799)" fill="#fff"/>
    <path id="Path_36186" data-name="Path 36186" d="M-1174.719,257.958a.221.221,0,0,1-.105-.03.215.215,0,0,1-.1-.248l1.726-5.279a.252.252,0,0,1,.059-.088l.842-.749a.21.21,0,0,1,.3.012.21.21,0,0,1,.052.181c-.067.37-.661,3.612-.728,3.856a19.044,19.044,0,0,1-1.882,2.273A.218.218,0,0,1-1174.719,257.958Zm1.907-5.372-1.4,4.29a14.278,14.278,0,0,0,1.124-1.364c.038-.139.353-1.819.606-3.2Z" transform="translate(1237.794 -251.508)" fill="#263238"/>
    <path id="Path_36187" data-name="Path 36187" d="M-1187.117,266.617s-3.789-3.225-3.229-4.441,6.736-6.736,6.736-6.736,1.57-1.9,1.663-1.684a11.559,11.559,0,0,1-.711,3.368c-.362.737-3.318,5.157-3.318,5.157l1.659,1.5Z" transform="translate(1246.752 -252.799)" fill="#fff"/>
    <path id="Path_36188" data-name="Path 36188" d="M-1187.406,266.538a.2.2,0,0,1-.135-.051c-.657-.556-3.9-3.393-3.284-4.694s6.525-6.584,6.778-6.811c1.482-1.793,1.684-1.76,1.814-1.739a.261.261,0,0,1,.185.152,10.6,10.6,0,0,1-.716,3.532c-.349.707-2.7,4.235-3.229,5.031l1.524,1.381a.22.22,0,0,1,0,.307l-2.8,2.829A.2.2,0,0,1-1187.406,266.538Zm4.951-12.7c-.312.3-.842.893-1.288,1.431-2.139,1.924-6.26,5.772-6.7,6.7-.354.754,1.612,2.837,3.027,4.067l2.505-2.526-1.495-1.356a.206.206,0,0,1-.034-.274c.03-.042,2.947-4.42,3.3-5.132A13.2,13.2,0,0,0-1182.455,253.841Z" transform="translate(1247.041 -252.51)" fill="#263238"/>
  </g>
  <g id="freepik--arrow-1--inject-2" transform="translate(6 0)">
    <g id="Group_3699" data-name="Group 3699">
      <path id="Path_36189" data-name="Path 36189" d="M-1334.767,109.74l-30.742,15.627,4.221,6.665c-.573.415-44.036,43.7-65.123,64.692-7.126,7.091-17.488,11.146-28.37,11.1l-55.127-.176v14.327l59.647.025c13.675.007,26.692-5.061,35.727-13.911l61.762-62.808,4.686,7.407,14.3-41.268Z" transform="translate(1510.073 -109.547)" fill="#263238"/>
      <path id="Path_36190" data-name="Path 36190" d="M-1450.5,221.855h-.029l-59.629-.025a.2.2,0,0,1-.208-.179V207.325a.182.182,0,0,1,.063-.129.234.234,0,0,1,.145-.05h0l55.106.176h.166c10.764.008,21-4.024,28.041-11.046,23.464-23.378,62.5-62.249,65.007-64.6l-4.153-6.554a.166.166,0,0,1,.075-.24l30.732-15.627a.242.242,0,0,1,.166-.018.193.193,0,0,1,.125.093l.976,1.683a.152.152,0,0,1,0,.133l-14.286,41.268a.2.2,0,0,1-.178.129.223.223,0,0,1-.2-.093l-4.539-7.163-61.552,62.593C-1423.74,216.758-1436.789,221.849-1450.5,221.855Zm-59.45-.383,59.421.025h.029c13.6,0,26.539-5.048,35.525-13.85l61.726-62.8a.241.241,0,0,1,.183-.064.209.209,0,0,1,.158.093l4.448,7.031,14.12-40.788-.83-1.451-30.35,15.444,4.12,6.515a.166.166,0,0,1-.05.222c-.527.419-24.249,24-65.078,64.671-7.12,7.1-17.468,11.179-28.352,11.175h-.166l-54.9-.176Z" transform="translate(1510.368 -109.219)" fill="#263238"/>
      <path id="Path_36191" data-name="Path 36191" d="M-1366.333,123.683l4.224,6.658c-.574.415-44.07,43.7-65.174,64.692-7.13,7.092-17.5,11.148-28.392,11.1l-54.194-.172v14.327l58.717.029c13.686.006,26.713-5.064,35.755-13.915l61.789-62.812,4.694,7.407,14.306-41.261Z" transform="translate(1510.047 -109.547)" fill="#8aaad9"/>
      <path id="Path_36192" data-name="Path 36192" d="M-1451.437,220.153h-.025l-58.7-.029a.2.2,0,0,1-.208-.179V205.619a.177.177,0,0,1,.063-.129.347.347,0,0,1,.15-.05l54.172.172h.166c10.771,0,21.013-4.029,28.058-11.049,23.478-23.378,62.546-62.231,65.057-64.588l-4.156-6.551a.164.164,0,0,1,0-.14.181.181,0,0,1,.1-.1l31.707-13.958a.22.22,0,0,1,.225.021.159.159,0,0,1,.066.186l-14.3,41.282a.215.215,0,0,1-.179.129.223.223,0,0,1-.2-.093l-4.547-7.163-61.578,62.593C-1424.638,215.061-1437.706,220.152-1451.437,220.153Zm-58.515-.387,58.49.029h.025c13.614-.006,26.566-5.058,35.556-13.868l61.773-62.79a.253.253,0,0,1,.183-.061.206.206,0,0,1,.158.093l4.451,7.031,14.023-40.455-31.1,13.668,4.119,6.5a.17.17,0,0,1-.05.226c-.744.595-45.789,45.423-65.119,64.681-7.125,7.1-17.481,11.18-28.374,11.175h-.166l-53.968-.172Z" transform="translate(1510.368 -109.201)" fill="#263238"/>
    </g>
  </g>
</svg>
